# xmcd
#
# Track frame offsets:
#	150
#	13855
#	31802
#	46265
#	68020
#	84092
#	98972
#	111265
#	124927
#	143462
#	159597
#	172450
#	185710
#	201567
#	215395
#
# Disc length: 3093 seconds
#
# Revision: 10
# Processed by: cddbd v1.5.2PL0 Copyright (c) Steve Scherf et al.
# Submitted via: EasyCDDAExtractor 2010.6.0.0
#
DISCID=d50c130f
DTITLE=Various Artist - CLASSIC COUNTRY 1980 BIS 1984 [DISC 02]
DYEAR=2000
DGENRE=COUNTRY
TTITLE0=DR. HOOK - BETTER LOVE NEXT TIME
TTITLE1=DOLLY PARTON - STARTING OVER AGAIN
TTITLE2=DON WILLIAMS - LISTEN TO THE RADIO
TTITLE3=MERLE HAGGARD and WILLIE NELSON - PANCHO AND LEFTY
TTITLE4=ALABAMA - FEELS SO RIGHT
TTITLE5=JERRY REED - SHE GOT THE GOLDMINE (I GOT THE SHAFT)
TTITLE6=RONNIE MILSAP - MY HEART
TTITLE7=RICKY SKAGGS - SOMETHING IN MY HEART
TTITLE8=EARL THOMAS CONLEY - SOMEWHERE BETWEEN RIGHT AND WRONG
TTITLE9=T. G. SHEPPARD - PARTY TIME
TTITLE10=REBA MCENTIRE - ONLY YOU (AND YOU ALONE)
TTITLE11=LARRY GATLIN and THE GATLIN BROTHERS - HOUSTON (MEANS I'M ONE DAY CLOSE
TTITLE11=R TO YOU)
TTITLE12=WILLIE NELSON - LET IT BE ME
TTITLE13=JOHN ANDERSON - SWINGIN'
TTITLE14=DON MCLEAN - CRYING
EXTD=YEAR: 2003
EXTT0=
EXTT1=
EXTT2=
EXTT3=
EXTT4=
EXTT5=
EXTT6=
EXTT7=
EXTT8=
EXTT9=
EXTT10=
EXTT11=
EXTT12=
EXTT13=
EXTT14=
PLAYORDER=
